<svg width="174" height="173" viewBox="0 0 174 173" fill="none" xmlns="http://www.w3.org/2000/svg">
<path d="M88.4384 0.0172577C87.5923 -0.00778198 86.7438 -0.00776672 85.8952 0.0197754C62.8745 0.728104 44.7172 19.8407 45.1878 42.8654C45.4381 53.9436 50.0512 64.476 58.031 72.1651L57.6155 73.0312C52.3591 70.9512 46.7397 69.9525 41.0902 70.0927C18.0695 70.801 -0.0893071 89.9136 0.382272 112.938C0.855102 135.966 19.7791 154.316 42.8098 154.081C58.7344 153.894 73.1821 144.718 80.1231 130.387C79.9354 134.404 79.7627 137.868 79.4598 141.141C79.0994 145.016 78.5512 148.825 77.555 152.121C76.5588 155.418 75.1145 158.199 72.9593 161.02C70.8042 163.842 67.9432 166.697 65.2774 168.685C62.6117 170.672 60.1436 171.789 58.9121 172.347C57.6781 172.906 57.6756 172.905 66.4063 172.858C71.3574 172.829 79.1294 172.791 87.1843 172.768C95.2417 172.793 103.014 172.831 107.965 172.858C116.696 172.903 116.696 172.906 115.462 172.347C114.225 171.789 111.759 170.672 109.094 168.685C106.428 166.697 103.564 163.842 101.412 161.02C99.2566 158.199 97.8098 155.418 96.8136 152.121C95.8174 148.825 95.2717 145.016 94.9113 141.141C94.6059 137.845 94.4332 134.359 94.2455 130.304C101.297 144.949 116.17 154.21 132.425 154.081C155.456 153.844 174.001 135.11 174.001 112.077L173.966 110.358C173.022 87.3456 153.723 69.3843 130.703 70.0927C125.013 70.2854 119.424 71.6345 114.273 74.0524C123.717 66.0854 129.176 54.3615 129.193 42.0044L129.158 40.2824C128.255 18.2563 110.475 0.675537 88.4358 0.0172577H88.4384Z" fill="black"/>
</svg>
