<svg width="144" height="172" viewBox="0 0 144 172" fill="none" xmlns="http://www.w3.org/2000/svg">
<path d="M71.8122 0.131058L71.758 0.195419C71.5977 0.764008 71.1757 1.62019 70.3459 3.29463C68.6249 6.76019 65.1877 13.6927 60.296 21.8162C55.4043 29.9397 49.0556 39.2583 41.1439 48.6571C33.2276 58.0571 23.7553 67.5316 16.6475 73.8047C9.53975 80.0779 4.81304 83.1404 2.4485 84.6726C1.50316 85.2855 0.932644 85.6458 0.357422 85.8942C0.932644 86.1427 1.50316 86.5038 2.4485 87.1158C4.81304 88.6479 9.53975 91.7103 16.6475 97.9835C23.7553 104.258 33.2276 113.733 41.1439 123.131C49.0556 132.531 55.4043 141.85 60.296 149.972C65.1877 158.096 68.6249 165.029 70.3459 168.495C71.1757 170.168 71.5977 171.024 71.758 171.593L71.8122 171.657L71.8664 171.593C72.0244 171.024 72.4487 170.168 73.2786 168.495C74.9972 165.029 78.4367 158.096 83.3285 149.972C88.2202 141.85 94.5689 132.531 102.481 123.131C110.395 113.733 119.869 104.258 126.977 97.9835C134.082 91.7103 138.809 88.6479 141.176 87.1158C142.121 86.5038 142.692 86.1427 143.267 85.8942C142.692 85.6458 142.121 85.2855 141.176 84.6726C138.809 83.1404 134.082 80.0779 126.977 73.8047C119.869 67.5316 110.395 58.0571 102.481 48.6571C94.5689 39.2583 88.2202 29.9397 83.3285 21.8162C78.4367 13.6927 74.9972 6.76019 73.2786 3.29463C72.4487 1.62019 72.0244 0.764008 71.8664 0.195419L71.8122 0.131058Z" fill="black"/>
</svg>
