<svg width="195" height="173" viewBox="0 0 195 173" fill="none" xmlns="http://www.w3.org/2000/svg">
<path d="M49.0068 0.126892C46.2398 0.150757 43.5019 0.401352 40.8172 0.84523C33.6585 2.02895 26.8796 4.58727 20.8261 9.06673C14.7726 13.5462 9.44721 19.9444 5.94188 26.8652C2.43665 33.7837 0.75311 41.22 0.202108 47.6803C-0.348772 54.1382 0.231851 59.6223 1.87824 65.5552C3.52478 71.488 6.23656 77.8695 10.834 85.2677C15.4316 92.6634 21.915 101.078 31.4939 111.576C41.0728 122.075 53.748 134.659 65.2112 145.221C76.6743 155.787 86.9269 164.331 97.1786 172.876C107.43 164.331 117.68 155.787 129.144 145.221C140.607 134.659 153.281 122.075 162.861 111.576C172.44 101.078 178.923 92.6634 183.52 85.2677C188.118 77.8695 190.83 71.488 192.476 65.5552C194.123 59.6223 194.703 54.1382 194.153 47.6803C193.602 41.22 191.918 33.7837 188.413 26.8652C184.907 19.9444 179.582 13.5462 173.529 9.06673C167.476 4.58727 160.697 2.02895 153.537 0.84523C146.378 -0.33847 138.841 -0.149933 131.381 2.06235C123.92 4.27225 116.538 8.50351 110.85 13.9734C105.162 19.4432 101.218 26.0705 97.1786 32.8554C93.139 26.0705 89.1925 19.4432 83.5047 13.9734C77.8172 8.50351 70.4347 4.27225 62.9742 2.06235C58.3112 0.678177 53.6185 0.086319 49.0068 0.126892Z" fill="black"/>
</svg>
