<svg width="1920" height="1080" viewBox="0 0 1920 1080" fill="none" xmlns="http://www.w3.org/2000/svg">
<g clip-path="url(#clip0_2610_2)">
<rect width="1920" height="1080" fill="white"/>
<rect width="1920" height="1080" fill="#495159"/>
<rect x="1548.63" y="114" width="447" height="610" rx="20" transform="rotate(20 1548.63 114)" fill="black"/>
<rect x="1557.6" y="133.226" width="417" height="580" rx="5" transform="rotate(20 1557.6 133.226)" fill="white"/>
<rect x="1487.2" y="137.871" width="447" height="610" rx="20" transform="rotate(10 1487.2 137.871)" fill="black"/>
<rect x="1499.36" y="155.248" width="417" height="580" rx="5" transform="rotate(10 1499.36 155.248)" fill="white"/>
<rect x="1430.84" y="172.048" width="447" height="610" rx="20" fill="black"/>
<rect x="1445.84" y="187.048" width="417" height="580" rx="5" fill="white"/>
<path d="M1654.38 391C1645.27 398.376 1636.15 405.753 1625.97 414.87C1615.78 423.988 1604.51 434.851 1595.99 443.912C1587.48 452.974 1581.72 460.236 1577.63 466.622C1573.54 473.008 1571.13 478.514 1569.67 483.635C1568.21 488.756 1567.69 493.49 1568.18 499.066C1568.67 504.641 1570.17 511.06 1573.28 517.033C1576.4 523.005 1581.13 528.529 1586.51 532.396C1591.89 536.263 1597.92 538.47 1604.28 539.492C1606.67 539.875 1609.1 540.093 1611.56 540.112C1615.66 540.147 1619.83 539.635 1623.98 538.443C1630.61 536.534 1637.17 532.882 1642.23 528.161C1644.1 526.415 1645.75 524.531 1647.28 522.555C1647.11 526.179 1646.94 529.399 1646.65 532.418C1646.3 536.243 1645.75 540.004 1644.75 543.259C1643.75 546.514 1642.31 549.259 1640.16 552.045C1638 554.83 1635.14 557.65 1632.47 559.613C1629.81 561.575 1627.34 562.676 1626.11 563.228C1624.87 563.779 1624.87 563.779 1633.6 563.733C1638.55 563.704 1646.32 563.667 1654.38 563.644C1662.44 563.67 1670.21 563.706 1675.16 563.733C1683.89 563.778 1683.89 563.779 1682.66 563.228C1681.42 562.676 1678.95 561.575 1676.29 559.613C1673.62 557.65 1670.76 554.83 1668.61 552.045C1666.45 549.259 1665.01 546.514 1664.01 543.259C1663.01 540.004 1662.47 536.243 1662.11 532.418C1661.82 529.399 1661.65 526.18 1661.48 522.556C1663.01 524.532 1664.66 526.415 1666.53 528.161C1671.59 532.882 1678.15 536.534 1684.78 538.443C1691.41 540.351 1698.11 540.514 1704.48 539.492C1710.84 538.47 1716.87 536.263 1722.25 532.396C1727.63 528.529 1732.36 523.005 1735.48 517.033C1738.59 511.06 1740.09 504.641 1740.58 499.066C1741.07 493.49 1740.55 488.756 1739.09 483.635C1737.63 478.514 1735.21 473.008 1731.13 466.622C1727.04 460.236 1721.28 452.974 1712.76 443.912C1704.25 434.851 1692.98 423.988 1682.79 414.87C1672.6 405.753 1663.49 398.376 1654.38 391Z" fill="black"/>
<rect x="175.17" y="866" width="447" height="610" rx="20" transform="rotate(42 175.17 866)" fill="black"/>
<path d="M482.456 1162.87C484.508 1164.71 484.673 1167.88 482.826 1169.93L101.421 1593.52C99.5734 1595.57 96.412 1595.74 94.3598 1593.89L-208.1 1321.55C-210.152 1319.71 -210.318 1316.54 -208.47 1314.49L172.934 890.9C174.782 888.848 177.943 888.682 179.996 890.53L482.456 1162.87Z" fill="white"/>
<path d="M213.056 941.841C212.716 941.517 212.366 941.201 212.006 940.898C202.242 932.636 187.648 933.777 179.287 943.453C175.274 948.118 173.264 954.178 173.7 960.316L173.207 960.519C171.81 957.708 169.862 955.208 167.479 953.166C157.716 944.905 143.12 946.045 134.76 955.722C126.398 965.4 127.389 980.005 136.981 988.465C143.622 994.305 152.993 995.887 161.183 992.552C159.613 994.14 158.255 995.505 156.913 996.743C155.325 998.208 153.683 999.576 152.048 1000.57C150.411 1001.56 148.782 1002.17 146.844 1002.53C144.907 1002.89 142.665 1003.01 140.826 1002.84C138.988 1002.67 137.554 1002.21 136.838 1001.99C136.122 1001.76 136.121 1001.76 139.741 1004.98C141.795 1006.81 145.017 1009.68 148.349 1012.66C151.665 1015.67 154.858 1018.57 156.891 1020.42C160.478 1023.69 160.477 1023.69 160.175 1023C159.872 1022.31 159.27 1020.93 158.908 1019.12C158.546 1017.31 158.426 1015.07 158.586 1013.1C158.745 1011.14 159.181 1009.45 159.995 1007.72C160.809 1005.99 161.999 1004.22 163.29 1002.48C164.388 1001.01 165.613 999.508 167.042 997.765C164.51 1006.43 167.207 1015.78 173.963 1021.76C183.554 1030.22 198.169 1029.38 206.727 1019.88L207.352 1019.16C215.513 1009.31 214.223 994.725 204.459 986.464C202.04 984.429 199.232 982.909 196.208 981.993C203.065 982.214 209.675 979.405 214.273 974.312L214.899 973.588C222.71 964.163 221.906 950.301 213.055 941.841L213.056 941.841Z" fill="black"/>
<rect x="367.5" y="-495" width="447" height="610" rx="20" transform="rotate(54 367.5 -495)" fill="black"/>
<rect x="364.182" y="-474.048" width="417" height="580" rx="5" transform="rotate(54 364.182 -474.048)" fill="white"/>
<path d="M209.153 75.9512L209.096 75.9471C208.72 76.0858 208.082 76.1956 206.833 76.4077C204.246 76.8449 199.072 77.7225 192.666 78.2768C186.259 78.831 178.617 79.0624 170.307 78.4682C161.994 77.8719 153.021 76.4518 146.746 75.0528C140.472 73.6538 136.908 72.2813 135.125 71.5949C134.412 71.3205 133.987 71.1511 133.621 70.9346C133.714 71.3492 133.743 71.8061 133.784 72.5687C133.886 74.4766 134.09 78.2904 133.482 84.6902C132.873 91.0905 131.45 100.064 129.449 108.153C127.446 116.24 124.864 123.437 122.358 129.358C119.851 135.28 117.417 139.929 116.202 142.255C115.615 143.377 115.313 143.95 115.065 144.264L115.052 144.32L115.108 144.324C115.483 144.184 116.122 144.075 117.371 143.864C119.957 143.425 125.132 142.549 131.538 141.994C137.944 141.44 145.587 141.209 153.898 141.803C162.208 142.398 171.183 143.82 177.458 145.218C183.732 146.616 187.296 147.988 189.08 148.676C189.792 148.951 190.218 149.12 190.583 149.336C190.49 148.922 190.461 148.465 190.42 147.702C190.317 145.793 190.113 141.979 190.723 135.581C191.331 129.181 192.752 120.207 194.755 112.118C196.758 104.031 199.339 96.8342 201.846 90.9126C204.353 84.991 206.785 80.3408 208.002 78.0166C208.59 76.894 208.89 76.3199 209.139 76.0066L209.153 75.9512Z" fill="black"/>
</g>
<defs>
<clipPath id="clip0_2610_2">
<rect width="1920" height="1080" fill="white"/>
</clipPath>
</defs>
</svg>
