<svg width="173" height="173" viewBox="0 0 173 173" fill="none" xmlns="http://www.w3.org/2000/svg">
<path d="M86.5347 0.248322C77.4221 7.62401 68.3093 15.0008 58.1198 24.1182C47.9303 33.2367 36.663 44.0991 28.1484 53.1607C19.6338 62.2223 13.871 69.4841 9.78434 75.87C5.69768 82.2559 3.28767 87.7625 1.82411 92.8836C0.361459 98.0047 -0.155934 102.738 0.333807 108.314C0.823559 113.89 2.32006 120.308 5.43588 126.281C8.55165 132.253 13.2846 137.778 18.6655 141.644C24.0463 145.511 30.073 147.719 36.4363 148.74C38.8224 149.124 41.2552 149.341 43.7148 149.36C47.814 149.395 51.9857 148.883 56.1304 147.691C62.7619 145.782 69.325 142.13 74.3805 137.409C76.2501 135.663 77.9061 133.779 79.4348 131.803C79.2608 135.427 79.0933 138.647 78.8091 141.667C78.4494 145.491 77.9019 149.252 76.9056 152.507C75.9092 155.762 74.4646 158.507 72.3097 161.293C70.1547 164.078 67.2919 166.898 64.6264 168.861C61.9606 170.823 59.4944 171.925 58.2602 172.477C57.0261 173.027 57.0253 173.027 65.7552 172.981C70.7054 172.953 78.4786 172.916 86.5347 172.893C94.5908 172.918 102.364 172.955 107.314 172.981C116.044 173.026 116.043 173.027 114.81 172.477C113.575 171.925 111.108 170.823 108.443 168.861C105.777 166.898 102.915 164.078 100.759 161.293C98.6047 158.507 97.1602 155.762 96.1639 152.507C95.1675 149.252 94.62 145.491 94.2602 141.667C93.9761 138.647 93.8079 135.428 93.6345 131.804C95.1627 133.78 96.8183 135.663 98.6874 137.409C103.743 142.13 110.305 145.782 116.936 147.691C123.568 149.599 130.268 149.763 136.631 148.74C142.995 147.719 149.02 145.511 154.401 141.644C159.782 137.778 164.515 132.253 167.631 126.281C170.747 120.308 172.242 113.89 172.733 108.314C173.223 102.738 172.707 98.0047 171.244 92.8836C169.78 87.7625 167.369 82.2559 163.283 75.87C159.196 69.4841 153.432 62.2223 144.918 53.1607C136.403 44.0991 125.138 33.2367 114.948 24.1182C104.759 15.0008 95.6471 7.62401 86.5347 0.248322Z" fill="black"/>
</svg>
